<?xml version="1.0" encoding="UTF-8"?>
<svg id="Capa_2" data-name="Capa 2" xmlns="http://www.w3.org/2000/svg" viewBox="0 0 367.43 91.94">
  <defs>
    <style>
      .cls-1 {
        fill: #5aa7d7;
      }

      .cls-2 {
        fill: #1e648f;
      }

      .cls-3 {
        fill: #010101;
      }
    </style>
  </defs>
  <g id="Layer_1" data-name="Layer 1">
    <g>
      <g>
        <rect class="cls-3" x="69.13" y="38.32" width="61.22" height="15.31" transform="translate(53.77 145.71) rotate(-90)"/>
        <path class="cls-3" d="M147.03,15.36h-30.61v61.22h30.61c16.91,0,30.61-13.71,30.61-30.61h0c0-16.91-13.71-30.61-30.61-30.61Zm0,45.92h-15.31V30.66h15.31c8.45,0,15.31,6.85,15.31,15.31h0c0,8.45-6.85,15.31-15.31,15.31Z"/>
        <polygon class="cls-3" points="352.12 15.36 352.12 50.45 321.51 19.84 317.03 15.36 306.21 15.36 306.21 26.18 306.21 76.58 321.51 76.58 321.51 41.49 352.12 72.1 356.61 76.58 367.43 76.58 367.43 65.76 367.43 15.36 352.12 15.36"/>
        <path class="cls-3" d="M234.73,64.72l-4.85-15.31-10.79-34.06h-22.05l-4.21,13.3-6.58,20.76-4.85,15.31-3.76,11.86h16.06l3.76-11.86h21.22l3.76,11.86h16.06l-3.76-11.86Zm-32.43-15.31l5.76-18.18,5.76,18.18h-11.52Z"/>
        <path class="cls-3" d="M299.01,64.72l-4.85-15.31-10.79-34.06h-22.05l-4.21,13.3-6.58,20.76-4.85,15.31-3.76,11.86h16.06l3.76-11.86h21.22l3.76,11.86h16.06l-3.76-11.86Zm-32.43-15.31l5.76-18.18,5.76,18.18h-11.52Z"/>
      </g>
      <g>
        <path class="cls-1" d="M54.89,69.39h0c-8.04,8.04-20.45,9.06-29.6,3.06l-10.93,10.93c14.74,12.17,36.6,11.36,50.39-2.43l.69-.69c13.79-13.79,14.6-35.65,2.43-50.39l-9.91,9.91c6,9.15,4.98,21.56-3.06,29.6Z"/>
        <path class="cls-2" d="M21.53,36.02l16.63-16.63s.07-.03,.1,0l9.91,9.91,9.69-9.69L38.26,.02s-.07-.03-.1,0L10.99,27.19C-1.28,39.47-3.27,58.12,5.01,72.47l11.21-11.21c-3.28-8.45-1.51-18.41,5.31-25.23Z"/>
      </g>
    </g>
  </g>
</svg>