<svg xmlns="http://www.w3.org/2000/svg" viewBox="0 0 718.95 216.4"><defs><style>.cls-1{fill:#fff;}</style></defs><g id="Capa_15" data-name="Capa 15"><rect class="cls-1" x="194.53" y="53.33" width="26.67" height="106.67"/><path class="cls-1" d="M290.26,53.33H236.93V160h53.33a53.34,53.34,0,1,0,0-106.67m0,80H263.6V80h26.66a26.67,26.67,0,1,1,0,53.33"/><polygon class="cls-1" points="647.59 53.33 647.59 114.47 594.26 61.14 586.45 53.33 567.59 53.33 567.59 72.19 567.59 160 594.26 160 594.26 98.85 647.59 152.19 655.4 160 674.26 160 674.26 141.14 674.26 53.33 647.59 53.33"/><path class="cls-1" d="M443.07,139.34l-8.45-26.67L415.81,53.33H377.39l-7.33,23.16-11.47,36.18-8.44,26.67L343.6,160h28l6.55-20.66h37L421.64,160h28Zm-56.5-26.67L396.6,81l10,31.68Z"/><path class="cls-1" d="M555.06,139.34l-8.45-26.67-18.8-59.34H489.39l-7.34,23.16-11.46,36.18-8.45,26.67L455.59,160h28l6.55-20.66h37L533.63,160h28Zm-56.5-26.67L508.6,81l10,31.68Z"/><path class="cls-1" d="M129.74,147.47h0a41.13,41.13,0,0,1-51.58,5.34l-19,19a65.38,65.38,0,0,0,87.79-4.24l1.2-1.19a65.38,65.38,0,0,0,4.24-87.79L135.07,95.89a41.12,41.12,0,0,1-5.33,51.58"/><path class="cls-1" d="M71.6,89.34l29-29a.13.13,0,0,1,.18,0L118,77.63,134.9,60.75,100.76,26.61a.13.13,0,0,0-.18,0L53.24,74a65.4,65.4,0,0,0-10.42,78.88L62.36,133.3a41.1,41.1,0,0,1,9.24-44"/></g></svg>