<svg width="24" height="24" viewBox="0 0 24 24" fill="none" xmlns="http://www.w3.org/2000/svg">
<g id="Icon/Light/HandPointing">
<g id="Group 1000006541">
<path id="Vector" d="M16.0645 12.9346V11.9281C16.0645 11.4832 15.882 11.0565 15.5571 10.7419C15.2322 10.4273 14.7915 10.2505 14.332 10.2505C13.8725 10.2505 13.4319 10.4273 13.107 10.7419C12.7821 11.0565 12.5996 11.4832 12.5996 11.9281V6.55988C12.5996 6.11497 12.417 5.68827 12.0921 5.37367C11.7672 5.05907 11.3266 4.88232 10.8671 4.88232C10.4076 4.88232 9.96696 5.05907 9.64206 5.37367C9.31716 5.68827 9.13464 6.11497 9.13464 6.55988V16.7343L7.23759 13.5469C7.00785 13.161 6.62918 12.8792 6.18488 12.7636C5.74058 12.6479 5.26705 12.708 4.86845 12.9304C4.46985 13.1529 4.17884 13.5195 4.05944 13.9498C3.94004 14.38 4.00203 14.8385 4.23177 15.2245C7.05568 20.9869 8.77082 23 12.5996 23C13.5096 23 14.4107 22.8264 15.2515 22.4892C16.0923 22.152 16.8562 21.6577 17.4997 21.0346C18.1432 20.4115 18.6537 19.6718 19.0019 18.8576C19.3502 18.0435 19.5294 17.1709 19.5294 16.2897V12.9346C19.5294 12.4897 19.3469 12.063 19.022 11.7484C18.6971 11.4338 18.2564 11.2571 17.7969 11.2571C17.3375 11.2571 16.8968 11.4338 16.5719 11.7484C16.247 12.063 16.0645 12.4897 16.0645 12.9346V12.9346Z" stroke="#677081" stroke-width="1.5" stroke-linecap="round" stroke-linejoin="round"/>
<path id="Ellipse 1734" d="M15.6471 6.17647C15.6471 5.49669 15.5132 4.82356 15.2531 4.19552C14.993 3.56748 14.6117 2.99683 14.131 2.51615C13.6503 2.03547 13.0796 1.65418 12.4516 1.39404C11.8236 1.13389 11.1504 1 10.4707 1C9.79088 1 9.11775 1.13389 8.48971 1.39404C7.86167 1.65418 7.29102 2.03547 6.81034 2.51615C6.32966 2.99683 5.94837 3.56748 5.68822 4.19552C5.42808 4.82356 5.29419 5.49669 5.29419 6.17647" stroke="#677081" stroke-width="1.5" stroke-linecap="round"/>
</g>
</g>
</svg>
