<svg id="Capa_1" data-name="Capa 1" xmlns="http://www.w3.org/2000/svg" viewBox="0 0 400 513.59"><defs><style>.cls-1{fill:#cc2525;}.cls-2,.cls-3{fill:#fff;}.cls-2{opacity:0.82;}</style></defs><path class="cls-1" d="M247.48,0H81.85C36.65,0,0,33.83,0,75.56V438c0,41.73,36.65,75.56,81.85,75.56h236.3c45.2,0,81.85-33.83,81.85-75.56V140.79Z"/><path class="cls-2" d="M247.48,0,400,140.79H280c-18,0-32.53-13.44-32.53-30Z"/><path class="cls-3" d="M203.69,173.26c-2.53,13.71-3.57,27.7-6.5,41.32a15.16,15.16,0,0,0,2,12.14A285.48,285.48,0,0,0,248,287.16c2.76,2.59,5.35,3,8.92,2.81,10.26-.57,20.56-1.08,30.81-.68,7.39.3,13.53,4.21,18.41,9.93,6.57,7.71,5,17.8-3.61,23.07-7.35,4.53-15.4,5.71-22.92,2.15-9.86-4.66-19-10.91-28.54-16.17-2.38-1.3-5.62-2.39-8.12-1.89-31,6.23-60.62,16.63-89.2,30-2,.95-3.75,3.2-4.89,5.24-8.73,15.73-17.18,31.64-29.83,44.74-6,6.17-12.63,10.68-21.78,10.5-11.12-.22-16.76-7-14.67-18.05,1.58-8.33,5.69-15.2,11.61-21.1,11.83-11.8,26.14-19.93,40.69-27.78,3-1.61,6.18-4.21,7.65-7.16a531.73,531.73,0,0,0,37-95.8,14.26,14.26,0,0,0-.83-8.87c-7.44-16.68-14.06-33.51-13.56-52.22a30.4,30.4,0,0,1,7.3-19.74c6-6.91,14.9-7.16,21.52-.77,7.16,6.92,9.73,14.24,9.76,27.86C204.11,173.33,203.28,173.18,203.69,173.26ZM162.35,316l70-22.85L190.74,242C181.3,266.57,171.75,291.49,162.35,316Zm24.29-117.78c2.73-11.86,4.11-22.86,2.34-34-.51-3.22-3-6.13-4.78-9.56C176.57,162.81,178.11,185.89,186.64,198.26ZM96.52,382.34c8.24,1.22,25.34-16.6,29.54-30.38C114.56,354.7,97.42,372.16,96.52,382.34Zm173.13-79c7.71,8.13,20.86,11.06,26,5.78C291.11,303,277.42,299.91,269.65,303.37Z"/></svg>