<svg xmlns="http://www.w3.org/2000/svg" viewBox="0 0 400 513.59"><defs><style>.cls-1{fill:#09004c;}.cls-2,.cls-3{fill:#fff;}.cls-2{opacity:0.82;}</style></defs><g id="Capa_1" data-name="Capa 1"><path class="cls-1" d="M247.48,0H81.85C36.65,0,0,33.83,0,75.56V438c0,41.73,36.65,75.56,81.85,75.56h236.3c45.2,0,81.85-33.83,81.85-75.56V140.79Z"/><path class="cls-2" d="M247.48,0,400,140.79H280c-18,0-32.53-13.44-32.53-30Z"/></g><g id="Capa_3" data-name="Capa 3"><path class="cls-3" d="M47.77,234V216.48h92.8V234ZM85,348V227.24H103.4V348Z"/><path class="cls-3" d="M158.66,348V216.48h18.46V348Zm9-114V216.48h75.52V234Zm0,57.43V273.92h65.57v17.54Zm0,56.53V330.45h75.52V348Z"/><path class="cls-3" d="M254.9,348l45.77-75.16,33-56.35H354.4l-43.51,71.18L275.62,348Zm80.78,0L301.49,290.2l-2.81-4.53L256,216.48H276.7L308.45,270l3,4.88,45,73.08Z"/></g></svg>