<svg xmlns="http://www.w3.org/2000/svg" viewBox="0 0 400 513.59"><defs><style>.cls-1{fill:#34a6c4;}.cls-2{fill:#fff;opacity:0.82;}.cls-3,.cls-4{fill:none;stroke:#fff;stroke-miterlimit:10;}.cls-3{stroke-width:14.44px;}.cls-4{stroke-width:14.42px;}</style></defs><g id="Capa_1" data-name="Capa 1"><path class="cls-1" d="M247.48,0H81.85C36.65,0,0,33.83,0,75.56V438c0,41.73,36.65,75.56,81.85,75.56h236.3c45.2,0,81.85-33.83,81.85-75.56V140.79Z"/><path class="cls-2" d="M247.48,0,400,140.79H280c-18,0-32.53-13.44-32.53-30Z"/></g><g id="Capa_3" data-name="Capa 3"><circle class="cls-3" cx="201.65" cy="292.69" r="121.04"/><path class="cls-4" d="M177,230.17v125c0,.07.1.1.16.06l76-60.74a.07.07,0,0,0,0-.11l-76-64.3C177.13,230.07,177,230.1,177,230.17Z"/></g></svg>