<svg xmlns="http://www.w3.org/2000/svg" viewBox="0 0 400 513.59"><defs><style>.cls-1{fill:#257044;}.cls-2,.cls-3{fill:#fff;}.cls-2{opacity:0.82;}</style></defs><g id="Capa_1" data-name="Capa 1"><path class="cls-1" d="M247.48,0H81.85C36.65,0,0,33.83,0,75.56V438c0,41.73,36.65,75.56,81.85,75.56h236.3c45.2,0,81.85-33.83,81.85-75.56V140.79Z"/><path class="cls-2" d="M247.48,0,400,140.79H280c-18,0-32.53-13.44-32.53-30Z"/></g><g id="Capa_3" data-name="Capa 3"><path class="cls-3" d="M110.3,401l80-131.38L248,171.16h36.2l-76,124.42L146.51,401Zm141.18,0L191.72,300l-4.9-7.9-74.62-121h36.2l55.5,93.59,5.21,8.54L287.69,401Z"/></g></svg>