<svg width="21" height="26" viewBox="0 0 21 26" fill="none" xmlns="http://www.w3.org/2000/svg">
<g id="&#240;&#159;&#166;&#134; icon &#34;notification&#34;">
<g id="Group">
<path id="Vector" d="M10.5063 23.1192C7.72241 23.1192 4.93851 22.6771 2.29798 21.793C1.29434 21.4465 0.529666 20.7415 0.19512 19.8215C-0.151374 18.9015 -0.0318935 17.8859 0.517718 16.9779L1.89175 14.6958C2.1785 14.2179 2.44136 13.262 2.44136 12.7005V9.24751C2.44136 4.80282 6.06163 1.18256 10.5063 1.18256C14.951 1.18256 18.5713 4.80282 18.5713 9.24751V12.7005C18.5713 13.2501 18.8342 14.2179 19.1209 14.7078L20.483 16.9779C20.9968 17.8382 21.0923 18.8776 20.7458 19.8215C20.3994 20.7654 19.6466 21.4823 18.7027 21.793C16.0741 22.6771 13.2902 23.1192 10.5063 23.1192ZM10.5063 2.97477C7.05332 2.97477 4.23357 5.78257 4.23357 9.24751V12.7005C4.23357 13.5727 3.87513 14.8631 3.43305 15.6158L2.05902 17.8979C1.79616 18.34 1.72447 18.8059 1.8798 19.2002C2.02318 19.6065 2.38162 19.9171 2.87149 20.0844C7.86578 21.7571 13.1588 21.7571 18.1531 20.0844C18.5832 19.941 18.9178 19.6184 19.0731 19.1883C19.2284 18.7582 19.1926 18.2922 18.9536 17.8979L17.5796 15.6158C17.1256 14.8392 16.7791 13.5607 16.7791 12.6885V9.24751C16.7791 5.78257 13.9713 2.97477 10.5063 2.97477Z" fill="#fff"/>
<path id="Vector_2" d="M12.7284 3.29767C12.6447 3.29767 12.5611 3.28572 12.4775 3.26182C12.131 3.16624 11.7964 3.09455 11.4738 3.04676C10.4582 2.91533 9.4785 2.98702 8.5585 3.26182C8.22395 3.36936 7.86555 3.26182 7.63853 3.01092C7.41152 2.76001 7.33983 2.40156 7.47126 2.07897C7.96113 0.824417 9.1559 0 10.518 0C11.8801 0 13.0749 0.812469 13.5647 2.07897C13.6842 2.40156 13.6245 2.76001 13.3975 3.01092C13.2183 3.20208 12.9673 3.29767 12.7284 3.29767Z" fill="#fff"/>
<path id="Vector_3" d="M10.5059 25.8436C9.32302 25.8436 8.17601 25.3657 7.33968 24.5293C6.50331 23.6929 6.02539 22.5459 6.02539 21.3631H7.8176C7.8176 22.068 8.10432 22.761 8.60614 23.2628C9.10796 23.7646 9.80095 24.0514 10.5059 24.0514C11.9874 24.0514 13.1942 22.8446 13.1942 21.3631H14.9864C14.9864 23.8363 12.9791 25.8436 10.5059 25.8436Z" fill="#fff"/>
</g>
</g>
</svg>
