<svg xmlns="http://www.w3.org/2000/svg" viewBox="0 0 400 513.59"><defs><style>.cls-1{fill:#efc30c;}.cls-2,.cls-3{fill:#fff;}.cls-2{opacity:0.82;}</style></defs><g id="Capa_1" data-name="Capa 1"><path class="cls-1" d="M247.48,0H81.85C36.65,0,0,33.83,0,75.56V438c0,41.73,36.65,75.56,81.85,75.56h236.3c45.2,0,81.85-33.83,81.85-75.56V140.79Z"/><path class="cls-2" d="M247.48,0,400,140.79H280c-18,0-32.53-13.44-32.53-30Z"/></g><g id="Capa_3" data-name="Capa 3"><path class="cls-3" d="M155.39,216.48V232.4l-57.25,98H157.2V348H75.43V332.08l57.71-98H77.06V216.48Z"/><path class="cls-3" d="M200.08,216.48V348H181.62V216.48Z"/><path class="cls-3" d="M232.64,348V216.48h18.45V348Zm9.5-51V279.43h42.05q9,0,14.52-6.24t5.47-16.37q0-10.31-5.47-16.55T284.19,234H242.14V216.48h41.42q11.94,0,20.81,5a35.27,35.27,0,0,1,13.79,14.06q4.93,9,4.93,21.26T318.16,278a35,35,0,0,1-13.79,14q-8.87,5-20.81,5Z"/></g></svg>