<svg xmlns="http://www.w3.org/2000/svg" viewBox="0 0 400 513.59"><defs><style>.cls-1{fill:#dd4a00;}.cls-2,.cls-3{fill:#fff;}.cls-2{opacity:0.82;}</style></defs><g id="Capa_1" data-name="Capa 1"><path class="cls-1" d="M247.48,0H81.85C36.65,0,0,33.83,0,75.56V438c0,41.73,36.65,75.56,81.85,75.56h236.3c45.2,0,81.85-33.83,81.85-75.56V140.79Z"/><path class="cls-2" d="M247.48,0,400,140.79H280c-18,0-32.53-13.44-32.53-30Z"/></g><g id="Capa_3" data-name="Capa 3"><path class="cls-3" d="M135.6,401V171.16h32.25V401Zm16.6-89.17V281.2h73.51q15.81,0,25.38-10.91t9.56-28.62q0-18-9.56-28.93t-25.38-10.91H152.2V171.16h72.41q20.87,0,36.36,8.77a61.55,61.55,0,0,1,24.11,24.59q8.61,15.81,8.62,37.15t-8.62,37A60.94,60.94,0,0,1,261,303.17q-15.5,8.7-36.36,8.7Z"/></g></svg>