<svg xmlns="http://www.w3.org/2000/svg" viewBox="0 0 400 513.59"><defs><style>.cls-1{fill:#562700;}.cls-2,.cls-3{fill:#fff;}.cls-2{opacity:0.82;}</style></defs><g id="Capa_1" data-name="Capa 1"><path class="cls-1" d="M247.48,0H81.85C36.65,0,0,33.83,0,75.56V438c0,41.73,36.65,75.56,81.85,75.56h236.3c45.2,0,81.85-33.83,81.85-75.56V140.79Z"/><path class="cls-2" d="M247.48,0,400,140.79H280c-18,0-32.53-13.44-32.53-30Z"/></g><g id="Capa_3" data-name="Capa 3"><path class="cls-3" d="M59.73,331.82V213.54H76.31V331.82Zm7.23-50V266.05h40.33a14.64,14.64,0,0,0,11.62-5q4.4-5,4.39-13.33t-4.39-13.33a14.64,14.64,0,0,0-11.62-5H67V213.54h39.68a36.8,36.8,0,0,1,18,4.26,30.32,30.32,0,0,1,12,11.91,39.7,39.7,0,0,1,0,35.9,30.51,30.51,0,0,1-12,11.95,36.52,36.52,0,0,1-18,4.26Zm59.27,50L99.16,278.17l16.5-3.74,30.24,57.39Z"/><path class="cls-3" d="M152.81,331.82l43.58-118.2h14.14l43.58,118.2H236.22l-32.76-95.36L170.7,331.82Zm20.08-25.93V290.12h62.2v15.77Z"/><path class="cls-3" d="M272,331.82V213.54h16.59V331.82Zm7.24-50V266.05h40.32a14.66,14.66,0,0,0,11.63-5q4.4-5,4.39-13.33t-4.39-13.33a14.66,14.66,0,0,0-11.63-5H279.23V213.54H318.9A36.77,36.77,0,0,1,337,217.8a30.2,30.2,0,0,1,12,11.91,39.7,39.7,0,0,1,0,35.9,30.49,30.49,0,0,1-12,11.95,36.53,36.53,0,0,1-18,4.26Zm59.27,50-27.08-53.65,16.51-3.74,30.24,57.39Z"/></g></svg>