<svg xmlns="http://www.w3.org/2000/svg" viewBox="0 0 400 513.59"><defs><style>.cls-1{fill:#43a5d6;}.cls-2,.cls-3{fill:#fff;}.cls-2{opacity:0.82;}</style></defs><g id="Capa_1" data-name="Capa 1"><path class="cls-1" d="M247.48,0H81.85C36.65,0,0,33.83,0,75.56V438c0,41.73,36.65,75.56,81.85,75.56h236.3c45.2,0,81.85-33.83,81.85-75.56V140.79Z"/><path class="cls-2" d="M247.48,0,400,140.79H280c-18,0-32.53-13.44-32.53-30Z"/></g><g id="Capa_3" data-name="Capa 3"><path class="cls-3" d="M285.42,210H114.58c-6.87,0-12.43,6.37-12.43,14.23v145.8c0,7.86,5.56,14.23,12.43,14.23H285.42c6.87,0,12.43-6.37,12.43-14.23V224.27C297.85,216.41,292.29,210,285.42,210Zm0,14.23V327.72l-24.48-25.49a8.49,8.49,0,0,0-12.86.36L223.3,331l-48.87-66.83a8.59,8.59,0,0,0-14.21-.11l-45.64,60.74V224.27Zm-52.81,37.34c0-10.81,7.65-19.56,17.09-19.56s17.08,8.75,17.08,19.56-7.64,19.56-17.08,19.56S232.61,272.41,232.61,261.61Z"/></g></svg>