<svg width="24" height="24" viewBox="0 0 24 24" fill="none" xmlns="http://www.w3.org/2000/svg">
<g id="export">
<g id="vuesax/outline/export">
<g id="export_2">
<path id="Vector" d="M1.75022 15.26L1.75022 8.74001C1.75022 3.83001 3.85022 1.73001 8.76022 1.73001L8.89022 1.73001C13.3302 1.73001 15.4702 3.48001 15.8402 7.40001C15.8702 7.80001 15.5702 8.18001 15.1602 8.22001C14.7502 8.26001 14.3802 7.96001 14.3402 7.54001C14.0502 4.40001 12.5702 3.23001 8.88022 3.23001L8.75022 3.23001C4.68022 3.23001 3.24022 4.67001 3.24022 8.74001L3.24022 15.26C3.24022 19.33 4.68022 20.77 8.75022 20.77L8.88022 20.77C12.5902 20.77 14.0702 19.58 14.3402 16.38C14.3802 15.97 14.7402 15.66 15.1502 15.7C15.5602 15.74 15.8702 16.09 15.8302 16.51C15.4902 20.49 13.3402 22.27 8.87022 22.27L8.74022 22.27C3.85022 22.27 1.75022 20.17 1.75022 15.26Z" fill="#FF7373"/>
<path id="Vector_2" d="M8.24988 12C8.24988 11.59 8.58988 11.25 8.99988 11.25L20.3799 11.25C20.7899 11.25 21.1299 11.59 21.1299 12C21.1299 12.41 20.7899 12.75 20.3799 12.75L8.99988 12.75C8.58988 12.75 8.24988 12.41 8.24988 12Z" fill="#FF7373"/>
<path id="Vector_3" d="M17.4001 15.35C17.4001 15.16 17.4701 14.97 17.6201 14.82L20.4401 12L17.6201 9.18C17.3301 8.89 17.3301 8.41 17.6201 8.12C17.9101 7.83 18.3901 7.83 18.6801 8.12L22.0301 11.47C22.3201 11.76 22.3201 12.24 22.0301 12.53L18.6801 15.88C18.3901 16.17 17.9101 16.17 17.6201 15.88C17.4701 15.74 17.4001 15.54 17.4001 15.35Z" fill="#FF7373"/>
</g>
</g>
</g>
</svg>
